<svg xmlns="http://www.w3.org/2000/svg" xmlns:xlink="http://www.w3.org/1999/xlink" width="780" height="588" version="1.1" viewBox="0 0 585 441"><defs><style type="text/css">*{stroke-linecap:butt;stroke-linejoin:round}</style></defs><g id="figure_1"><g id="patch_1"><path fill="#fff" d="M0 441 L585 441 L585 0 L0 0 z"/></g><g id="axes_1"><g id="patch_2"><path fill="#fff" d="M34.5794 345.771 L572.04 345.771 L572.04 28.9018 L34.5794 28.9018 z"/></g><g id="PathCollection_1"><defs><path id="C0_0_919e3f95db" d="M0 2.23607 C0.593012 2.23607 1.16182 2.00046 1.58114 1.58114 C2.00046 1.16182 2.23607 0.593012 2.23607 0 C2.23607 -0.593012 2.00046 -1.16182 1.58114 -1.58114 C1.16182 -2.00046 0.593012 -2.23607 0 -2.23607 C-0.593012 -2.23607 -1.16182 -2.00046 -1.58114 -1.58114 C-2.00046 -1.16182 -2.23607 -0.593012 -2.23607 0 C-2.23607 0.593012 -2.00046 1.16182 -1.58114 1.58114 C-1.16182 2.00046 -0.593012 2.23607 0 2.23607 z"/></defs><g clip-path="url(#p518a017d35)"><use x="65.902" y="204.573" fill="red" stroke="red" xlink:href="#C0_0_919e3f95db"/></g><g clip-path="url(#p518a017d35)"><use x="75.105" y="45.885" fill="red" stroke="red" xlink:href="#C0_0_919e3f95db"/></g><g clip-path="url(#p518a017d35)"><use x="67.154" y="183.481" fill="red" stroke="red" xlink:href="#C0_0_919e3f95db"/></g><g clip-path="url(#p518a017d35)"><use x="70.334" y="261.223" fill="red" stroke="red" xlink:href="#C0_0_919e3f95db"/></g><g clip-path="url(#p518a017d35)"><use x="79.325" y="46.034" fill="red" stroke="red" xlink:href="#C0_0_919e3f95db"/></g><g clip-path="url(#p518a017d35)"><use x="64.573" y="195.917" fill="red" stroke="red" xlink:href="#C0_0_919e3f95db"/></g><g clip-path="url(#p518a017d35)"><use x="70.162" y="190.011" fill="red" stroke="red" xlink:href="#C0_0_919e3f95db"/></g><g clip-path="url(#p518a017d35)"><use x="69.689" y="48.167" fill="red" stroke="red" xlink:href="#C0_0_919e3f95db"/></g><g clip-path="url(#p518a017d35)"><use x="65.016" y="312.749" fill="red" stroke="red" xlink:href="#C0_0_919e3f95db"/></g><g clip-path="url(#p518a017d35)"><use x="59.053" y="228.596" fill="red" stroke="red" xlink:href="#C0_0_919e3f95db"/></g><g clip-path="url(#p518a017d35)"><use x="66.987" y="46.107" fill="red" stroke="red" xlink:href="#C0_0_919e3f95db"/></g><g clip-path="url(#p518a017d35)"><use x="70.116" y="45.553" fill="red" stroke="red" xlink:href="#C0_0_919e3f95db"/></g></g><g id="PathCollection_2"><defs><path id="C1_0_919e3f95db" d="M0 2.23607 C0.593012 2.23607 1.16182 2.00046 1.58114 1.58114 C2.00046 1.16182 2.23607 0.593012 2.23607 0 C2.23607 -0.593012 2.00046 -1.16182 1.58114 -1.58114 C1.16182 -2.00046 0.593012 -2.23607 0 -2.23607 C-0.593012 -2.23607 -1.16182 -2.00046 -1.58114 -1.58114 C-2.00046 -1.16182 -2.23607 -0.593012 -2.23607 0 C-2.23607 0.593012 -2.00046 1.16182 -1.58114 1.58114 C-1.16182 2.00046 -0.593012 2.23607 0 2.23607 z"/></defs><g clip-path="url(#p518a017d35)"><use x="119.466" y="44.783" fill="#0f0" stroke="#0f0" xlink:href="#C1_0_919e3f95db"/></g><g clip-path="url(#p518a017d35)"><use x="111.678" y="44.459" fill="#0f0" stroke="#0f0" xlink:href="#C1_0_919e3f95db"/></g><g clip-path="url(#p518a017d35)"><use x="101.937" y="44.464" fill="#0f0" stroke="#0f0" xlink:href="#C1_0_919e3f95db"/></g><g clip-path="url(#p518a017d35)"><use x="102.712" y="278.761" fill="#0f0" stroke="#0f0" xlink:href="#C1_0_919e3f95db"/></g><g clip-path="url(#p518a017d35)"><use x="103.92" y="43.75" fill="#0f0" stroke="#0f0" xlink:href="#C1_0_919e3f95db"/></g><g clip-path="url(#p518a017d35)"><use x="106.391" y="56.365" fill="#0f0" stroke="#0f0" xlink:href="#C1_0_919e3f95db"/></g><g clip-path="url(#p518a017d35)"><use x="113.271" y="66.632" fill="#0f0" stroke="#0f0" xlink:href="#C1_0_919e3f95db"/></g><g clip-path="url(#p518a017d35)"><use x="104.162" y="50.234" fill="#0f0" stroke="#0f0" xlink:href="#C1_0_919e3f95db"/></g><g clip-path="url(#p518a017d35)"><use x="120.61" y="142.259" fill="#0f0" stroke="#0f0" xlink:href="#C1_0_919e3f95db"/></g><g clip-path="url(#p518a017d35)"><use x="114.467" y="179.24" fill="#0f0" stroke="#0f0" xlink:href="#C1_0_919e3f95db"/></g><g clip-path="url(#p518a017d35)"><use x="108.211" y="43.839" fill="#0f0" stroke="#0f0" xlink:href="#C1_0_919e3f95db"/></g><g clip-path="url(#p518a017d35)"><use x="121.096" y="87.756" fill="#0f0" stroke="#0f0" xlink:href="#C1_0_919e3f95db"/></g></g><g id="PathCollection_3"><defs><path id="C2_0_919e3f95db" d="M0 2.23607 C0.593012 2.23607 1.16182 2.00046 1.58114 1.58114 C2.00046 1.16182 2.23607 0.593012 2.23607 0 C2.23607 -0.593012 2.00046 -1.16182 1.58114 -1.58114 C1.16182 -2.00046 0.593012 -2.23607 0 -2.23607 C-0.593012 -2.23607 -1.16182 -2.00046 -1.58114 -1.58114 C-2.00046 -1.16182 -2.23607 -0.593012 -2.23607 0 C-2.23607 0.593012 -2.00046 1.16182 -1.58114 1.58114 C-1.16182 2.00046 -0.593012 2.23607 0 2.23607 z"/></defs><g clip-path="url(#p518a017d35)"><use x="159.292" y="44.055" fill="#00f" stroke="#00f" xlink:href="#C2_0_919e3f95db"/></g><g clip-path="url(#p518a017d35)"><use x="160.069" y="44.071" fill="#00f" stroke="#00f" xlink:href="#C2_0_919e3f95db"/></g><g clip-path="url(#p518a017d35)"><use x="147.753" y="44.378" fill="#00f" stroke="#00f" xlink:href="#C2_0_919e3f95db"/></g><g clip-path="url(#p518a017d35)"><use x="159.174" y="101.636" fill="#00f" stroke="#00f" xlink:href="#C2_0_919e3f95db"/></g><g clip-path="url(#p518a017d35)"><use x="147.469" y="138.409" fill="#00f" stroke="#00f" xlink:href="#C2_0_919e3f95db"/></g><g clip-path="url(#p518a017d35)"><use x="150.848" y="46.621" fill="#00f" stroke="#00f" xlink:href="#C2_0_919e3f95db"/></g><g clip-path="url(#p518a017d35)"><use x="163.769" y="53.578" fill="#00f" stroke="#00f" xlink:href="#C2_0_919e3f95db"/></g><g clip-path="url(#p518a017d35)"><use x="152.232" y="262.668" fill="#00f" stroke="#00f" xlink:href="#C2_0_919e3f95db"/></g><g clip-path="url(#p518a017d35)"><use x="152.88" y="43.837" fill="#00f" stroke="#00f" xlink:href="#C2_0_919e3f95db"/></g><g clip-path="url(#p518a017d35)"><use x="164.616" y="45.108" fill="#00f" stroke="#00f" xlink:href="#C2_0_919e3f95db"/></g><g clip-path="url(#p518a017d35)"><use x="156.255" y="44.594" fill="#00f" stroke="#00f" xlink:href="#C2_0_919e3f95db"/></g><g clip-path="url(#p518a017d35)"><use x="152.562" y="48.451" fill="#00f" stroke="#00f" xlink:href="#C2_0_919e3f95db"/></g></g><g id="PathCollection_4"><defs><path id="C3_0_919e3f95db" d="M0 2.23607 C0.593012 2.23607 1.16182 2.00046 1.58114 1.58114 C2.00046 1.16182 2.23607 0.593012 2.23607 0 C2.23607 -0.593012 2.00046 -1.16182 1.58114 -1.58114 C1.16182 -2.00046 0.593012 -2.23607 0 -2.23607 C-0.593012 -2.23607 -1.16182 -2.00046 -1.58114 -1.58114 C-2.00046 -1.16182 -2.23607 -0.593012 -2.23607 0 C-2.23607 0.593012 -2.00046 1.16182 -1.58114 1.58114 C-1.16182 2.00046 -0.593012 2.23607 0 2.23607 z"/></defs><g clip-path="url(#p518a017d35)"><use x="194.116" y="55.774" fill="#ff0" stroke="#ff0" xlink:href="#C3_0_919e3f95db"/></g><g clip-path="url(#p518a017d35)"><use x="203.272" y="44.379" fill="#ff0" stroke="#ff0" xlink:href="#C3_0_919e3f95db"/></g><g clip-path="url(#p518a017d35)"><use x="200.283" y="226.744" fill="#ff0" stroke="#ff0" xlink:href="#C3_0_919e3f95db"/></g><g clip-path="url(#p518a017d35)"><use x="203.081" y="44.887" fill="#ff0" stroke="#ff0" xlink:href="#C3_0_919e3f95db"/></g><g clip-path="url(#p518a017d35)"><use x="193.478" y="44.33" fill="#ff0" stroke="#ff0" xlink:href="#C3_0_919e3f95db"/></g><g clip-path="url(#p518a017d35)"><use x="188.08" y="51.197" fill="#ff0" stroke="#ff0" xlink:href="#C3_0_919e3f95db"/></g><g clip-path="url(#p518a017d35)"><use x="207.758" y="99.372" fill="#ff0" stroke="#ff0" xlink:href="#C3_0_919e3f95db"/></g><g clip-path="url(#p518a017d35)"><use x="206.094" y="44.264" fill="#ff0" stroke="#ff0" xlink:href="#C3_0_919e3f95db"/></g><g clip-path="url(#p518a017d35)"><use x="188.363" y="50.882" fill="#ff0" stroke="#ff0" xlink:href="#C3_0_919e3f95db"/></g><g clip-path="url(#p518a017d35)"><use x="190.153" y="44.552" fill="#ff0" stroke="#ff0" xlink:href="#C3_0_919e3f95db"/></g><g clip-path="url(#p518a017d35)"><use x="195.876" y="52.185" fill="#ff0" stroke="#ff0" xlink:href="#C3_0_919e3f95db"/></g><g clip-path="url(#p518a017d35)"><use x="192.326" y="51.312" fill="#ff0" stroke="#ff0" xlink:href="#C3_0_919e3f95db"/></g></g><g id="PathCollection_5"><defs><path id="C4_0_919e3f95db" d="M0 2.23607 C0.593012 2.23607 1.16182 2.00046 1.58114 1.58114 C2.00046 1.16182 2.23607 0.593012 2.23607 0 C2.23607 -0.593012 2.00046 -1.16182 1.58114 -1.58114 C1.16182 -2.00046 0.593012 -2.23607 0 -2.23607 C-0.593012 -2.23607 -1.16182 -2.00046 -1.58114 -1.58114 C-2.00046 -1.16182 -2.23607 -0.593012 -2.23607 0 C-2.23607 0.593012 -2.00046 1.16182 -1.58114 1.58114 C-1.16182 2.00046 -0.593012 2.23607 0 2.23607 z"/></defs><g clip-path="url(#p518a017d35)"><use x="240.868" y="44.431" fill="#f0f" stroke="#f0f" xlink:href="#C4_0_919e3f95db"/></g><g clip-path="url(#p518a017d35)"><use x="243.907" y="56.691" fill="#f0f" stroke="#f0f" xlink:href="#C4_0_919e3f95db"/></g><g clip-path="url(#p518a017d35)"><use x="237.404" y="44.81" fill="#f0f" stroke="#f0f" xlink:href="#C4_0_919e3f95db"/></g><g clip-path="url(#p518a017d35)"><use x="235.662" y="61.147" fill="#f0f" stroke="#f0f" xlink:href="#C4_0_919e3f95db"/></g><g clip-path="url(#p518a017d35)"><use x="237.829" y="106.254" fill="#f0f" stroke="#f0f" xlink:href="#C4_0_919e3f95db"/></g><g clip-path="url(#p518a017d35)"><use x="230.513" y="59.585" fill="#f0f" stroke="#f0f" xlink:href="#C4_0_919e3f95db"/></g><g clip-path="url(#p518a017d35)"><use x="245.472" y="59.864" fill="#f0f" stroke="#f0f" xlink:href="#C4_0_919e3f95db"/></g><g clip-path="url(#p518a017d35)"><use x="248.266" y="216.564" fill="#f0f" stroke="#f0f" xlink:href="#C4_0_919e3f95db"/></g><g clip-path="url(#p518a017d35)"><use x="247.065" y="44.692" fill="#f0f" stroke="#f0f" xlink:href="#C4_0_919e3f95db"/></g><g clip-path="url(#p518a017d35)"><use x="230.84" y="44.504" fill="#f0f" stroke="#f0f" xlink:href="#C4_0_919e3f95db"/></g><g clip-path="url(#p518a017d35)"><use x="247.653" y="45.433" fill="#f0f" stroke="#f0f" xlink:href="#C4_0_919e3f95db"/></g><g clip-path="url(#p518a017d35)"><use x="249.608" y="60.263" fill="#f0f" stroke="#f0f" xlink:href="#C4_0_919e3f95db"/></g></g><g id="PathCollection_6"><defs><path id="C5_0_919e3f95db" d="M0 2.23607 C0.593012 2.23607 1.16182 2.00046 1.58114 1.58114 C2.00046 1.16182 2.23607 0.593012 2.23607 0 C2.23607 -0.593012 2.00046 -1.16182 1.58114 -1.58114 C1.16182 -2.00046 0.593012 -2.23607 0 -2.23607 C-0.593012 -2.23607 -1.16182 -2.00046 -1.58114 -1.58114 C-2.00046 -1.16182 -2.23607 -0.593012 -2.23607 0 C-2.23607 0.593012 -2.00046 1.16182 -1.58114 1.58114 C-1.16182 2.00046 -0.593012 2.23607 0 2.23607 z"/></defs><g clip-path="url(#p518a017d35)"><use x="273.765" y="314.301" fill="#0ff" stroke="#0ff" xlink:href="#C5_0_919e3f95db"/></g><g clip-path="url(#p518a017d35)"><use x="273.524" y="313.465" fill="#0ff" stroke="#0ff" xlink:href="#C5_0_919e3f95db"/></g><g clip-path="url(#p518a017d35)"><use x="289.321" y="324.841" fill="#0ff" stroke="#0ff" xlink:href="#C5_0_919e3f95db"/></g><g clip-path="url(#p518a017d35)"><use x="282.645" y="313.333" fill="#0ff" stroke="#0ff" xlink:href="#C5_0_919e3f95db"/></g><g clip-path="url(#p518a017d35)"><use x="279.123" y="313.232" fill="#0ff" stroke="#0ff" xlink:href="#C5_0_919e3f95db"/></g><g clip-path="url(#p518a017d35)"><use x="273.466" y="313.78" fill="#0ff" stroke="#0ff" xlink:href="#C5_0_919e3f95db"/></g><g clip-path="url(#p518a017d35)"><use x="283.069" y="327.282" fill="#0ff" stroke="#0ff" xlink:href="#C5_0_919e3f95db"/></g><g clip-path="url(#p518a017d35)"><use x="285.155" y="325.25" fill="#0ff" stroke="#0ff" xlink:href="#C5_0_919e3f95db"/></g><g clip-path="url(#p518a017d35)"><use x="280.766" y="330.838" fill="#0ff" stroke="#0ff" xlink:href="#C5_0_919e3f95db"/></g><g clip-path="url(#p518a017d35)"><use x="291.66" y="328.165" fill="#0ff" stroke="#0ff" xlink:href="#C5_0_919e3f95db"/></g><g clip-path="url(#p518a017d35)"><use x="278.582" y="325.456" fill="#0ff" stroke="#0ff" xlink:href="#C5_0_919e3f95db"/></g><g clip-path="url(#p518a017d35)"><use x="279.916" y="324.7" fill="#0ff" stroke="#0ff" xlink:href="#C5_0_919e3f95db"/></g></g><g id="PathCollection_7"><defs><path id="C6_0_919e3f95db" d="M0 2.23607 C0.593012 2.23607 1.16182 2.00046 1.58114 1.58114 C2.00046 1.16182 2.23607 0.593012 2.23607 0 C2.23607 -0.593012 2.00046 -1.16182 1.58114 -1.58114 C1.16182 -2.00046 0.593012 -2.23607 0 -2.23607 C-0.593012 -2.23607 -1.16182 -2.00046 -1.58114 -1.58114 C-2.00046 -1.16182 -2.23607 -0.593012 -2.23607 0 C-2.23607 0.593012 -2.00046 1.16182 -1.58114 1.58114 C-1.16182 2.00046 -0.593012 2.23607 0 2.23607 z"/></defs><g clip-path="url(#p518a017d35)"><use x="318.661" y="312.522" stroke="#000" xlink:href="#C6_0_919e3f95db"/></g><g clip-path="url(#p518a017d35)"><use x="333.547" y="211.888" stroke="#000" xlink:href="#C6_0_919e3f95db"/></g><g clip-path="url(#p518a017d35)"><use x="324.669" y="256.037" stroke="#000" xlink:href="#C6_0_919e3f95db"/></g><g clip-path="url(#p518a017d35)"><use x="334.098" y="238.209" stroke="#000" xlink:href="#C6_0_919e3f95db"/></g><g clip-path="url(#p518a017d35)"><use x="335.622" y="49.339" stroke="#000" xlink:href="#C6_0_919e3f95db"/></g><g clip-path="url(#p518a017d35)"><use x="326.468" y="46.289" stroke="#000" xlink:href="#C6_0_919e3f95db"/></g><g clip-path="url(#p518a017d35)"><use x="320.629" y="46.107" stroke="#000" xlink:href="#C6_0_919e3f95db"/></g><g clip-path="url(#p518a017d35)"><use x="335.956" y="46.478" stroke="#000" xlink:href="#C6_0_919e3f95db"/></g><g clip-path="url(#p518a017d35)"><use x="325.394" y="204.84" stroke="#000" xlink:href="#C6_0_919e3f95db"/></g><g clip-path="url(#p518a017d35)"><use x="335.036" y="208.27" stroke="#000" xlink:href="#C6_0_919e3f95db"/></g><g clip-path="url(#p518a017d35)"><use x="327.515" y="46.137" stroke="#000" xlink:href="#C6_0_919e3f95db"/></g><g clip-path="url(#p518a017d35)"><use x="329" y="191.001" stroke="#000" xlink:href="#C6_0_919e3f95db"/></g></g><g id="PathCollection_8"><defs><path id="C7_0_919e3f95db" d="M0 2.23607 C0.593012 2.23607 1.16182 2.00046 1.58114 1.58114 C2.00046 1.16182 2.23607 0.593012 2.23607 0 C2.23607 -0.593012 2.00046 -1.16182 1.58114 -1.58114 C1.16182 -2.00046 0.593012 -2.23607 0 -2.23607 C-0.593012 -2.23607 -1.16182 -2.00046 -1.58114 -1.58114 C-2.00046 -1.16182 -2.23607 -0.593012 -2.23607 0 C-2.23607 0.593012 -2.00046 1.16182 -1.58114 1.58114 C-1.16182 2.00046 -0.593012 2.23607 0 2.23607 z"/></defs><g clip-path="url(#p518a017d35)"><use x="371.119" y="72.354" fill="maroon" stroke="maroon" xlink:href="#C7_0_919e3f95db"/></g><g clip-path="url(#p518a017d35)"><use x="366.588" y="44.639" fill="maroon" stroke="maroon" xlink:href="#C7_0_919e3f95db"/></g><g clip-path="url(#p518a017d35)"><use x="358.87" y="118.965" fill="maroon" stroke="maroon" xlink:href="#C7_0_919e3f95db"/></g><g clip-path="url(#p518a017d35)"><use x="361.534" y="172.519" fill="maroon" stroke="maroon" xlink:href="#C7_0_919e3f95db"/></g><g clip-path="url(#p518a017d35)"><use x="370.394" y="43.982" fill="maroon" stroke="maroon" xlink:href="#C7_0_919e3f95db"/></g><g clip-path="url(#p518a017d35)"><use x="368.353" y="53.347" fill="maroon" stroke="maroon" xlink:href="#C7_0_919e3f95db"/></g><g clip-path="url(#p518a017d35)"><use x="373.374" y="268.943" fill="maroon" stroke="maroon" xlink:href="#C7_0_919e3f95db"/></g><g clip-path="url(#p518a017d35)"><use x="364.2" y="48.291" fill="maroon" stroke="maroon" xlink:href="#C7_0_919e3f95db"/></g><g clip-path="url(#p518a017d35)"><use x="378.099" y="60.99" fill="maroon" stroke="maroon" xlink:href="#C7_0_919e3f95db"/></g><g clip-path="url(#p518a017d35)"><use x="366.839" y="44.496" fill="maroon" stroke="maroon" xlink:href="#C7_0_919e3f95db"/></g><g clip-path="url(#p518a017d35)"><use x="367.924" y="45.221" fill="maroon" stroke="maroon" xlink:href="#C7_0_919e3f95db"/></g><g clip-path="url(#p518a017d35)"><use x="364.411" y="44.677" fill="maroon" stroke="maroon" xlink:href="#C7_0_919e3f95db"/></g></g><g id="PathCollection_9"><defs><path id="C8_0_919e3f95db" d="M0 2.23607 C0.593012 2.23607 1.16182 2.00046 1.58114 1.58114 C2.00046 1.16182 2.23607 0.593012 2.23607 0 C2.23607 -0.593012 2.00046 -1.16182 1.58114 -1.58114 C1.16182 -2.00046 0.593012 -2.23607 0 -2.23607 C-0.593012 -2.23607 -1.16182 -2.00046 -1.58114 -1.58114 C-2.00046 -1.16182 -2.23607 -0.593012 -2.23607 0 C-2.23607 0.593012 -2.00046 1.16182 -1.58114 1.58114 C-1.16182 2.00046 -0.593012 2.23607 0 2.23607 z"/></defs><g clip-path="url(#p518a017d35)"><use x="417.152" y="43.852" fill="green" stroke="green" xlink:href="#C8_0_919e3f95db"/></g><g clip-path="url(#p518a017d35)"><use x="411.686" y="253.163" fill="green" stroke="green" xlink:href="#C8_0_919e3f95db"/></g><g clip-path="url(#p518a017d35)"><use x="414.775" y="82.42" fill="green" stroke="green" xlink:href="#C8_0_919e3f95db"/></g><g clip-path="url(#p518a017d35)"><use x="420.901" y="52.07" fill="green" stroke="green" xlink:href="#C8_0_919e3f95db"/></g><g clip-path="url(#p518a017d35)"><use x="419.584" y="134.558" fill="green" stroke="green" xlink:href="#C8_0_919e3f95db"/></g><g clip-path="url(#p518a017d35)"><use x="411.058" y="47.218" fill="green" stroke="green" xlink:href="#C8_0_919e3f95db"/></g><g clip-path="url(#p518a017d35)"><use x="418.121" y="47.572" fill="green" stroke="green" xlink:href="#C8_0_919e3f95db"/></g><g clip-path="url(#p518a017d35)"><use x="400.424" y="44.325" fill="green" stroke="green" xlink:href="#C8_0_919e3f95db"/></g><g clip-path="url(#p518a017d35)"><use x="419.723" y="44.139" fill="green" stroke="green" xlink:href="#C8_0_919e3f95db"/></g><g clip-path="url(#p518a017d35)"><use x="420.583" y="43.857" fill="green" stroke="green" xlink:href="#C8_0_919e3f95db"/></g><g clip-path="url(#p518a017d35)"><use x="420.079" y="44.605" fill="green" stroke="green" xlink:href="#C8_0_919e3f95db"/></g><g clip-path="url(#p518a017d35)"><use x="401.192" y="47.777" fill="green" stroke="green" xlink:href="#C8_0_919e3f95db"/></g></g><g id="PathCollection_10"><defs><path id="C9_0_919e3f95db" d="M0 2.23607 C0.593012 2.23607 1.16182 2.00046 1.58114 1.58114 C2.00046 1.16182 2.23607 0.593012 2.23607 0 C2.23607 -0.593012 2.00046 -1.16182 1.58114 -1.58114 C1.16182 -2.00046 0.593012 -2.23607 0 -2.23607 C-0.593012 -2.23607 -1.16182 -2.00046 -1.58114 -1.58114 C-2.00046 -1.16182 -2.23607 -0.593012 -2.23607 0 C-2.23607 0.593012 -2.00046 1.16182 -1.58114 1.58114 C-1.16182 2.00046 -0.593012 2.23607 0 2.23607 z"/></defs><g clip-path="url(#p518a017d35)"><use x="459.655" y="44.599" fill="navy" stroke="navy" xlink:href="#C9_0_919e3f95db"/></g><g clip-path="url(#p518a017d35)"><use x="452.188" y="256.57" fill="navy" stroke="navy" xlink:href="#C9_0_919e3f95db"/></g><g clip-path="url(#p518a017d35)"><use x="447.366" y="180.573" fill="navy" stroke="navy" xlink:href="#C9_0_919e3f95db"/></g><g clip-path="url(#p518a017d35)"><use x="462.763" y="65.383" fill="navy" stroke="navy" xlink:href="#C9_0_919e3f95db"/></g><g clip-path="url(#p518a017d35)"><use x="448.885" y="44.381" fill="navy" stroke="navy" xlink:href="#C9_0_919e3f95db"/></g><g clip-path="url(#p518a017d35)"><use x="459.462" y="105.615" fill="navy" stroke="navy" xlink:href="#C9_0_919e3f95db"/></g><g clip-path="url(#p518a017d35)"><use x="462.6" y="67.208" fill="navy" stroke="navy" xlink:href="#C9_0_919e3f95db"/></g><g clip-path="url(#p518a017d35)"><use x="454.223" y="44.449" fill="navy" stroke="navy" xlink:href="#C9_0_919e3f95db"/></g><g clip-path="url(#p518a017d35)"><use x="446.306" y="44.675" fill="navy" stroke="navy" xlink:href="#C9_0_919e3f95db"/></g><g clip-path="url(#p518a017d35)"><use x="448.908" y="78.362" fill="navy" stroke="navy" xlink:href="#C9_0_919e3f95db"/></g><g clip-path="url(#p518a017d35)"><use x="463.467" y="46.214" fill="navy" stroke="navy" xlink:href="#C9_0_919e3f95db"/></g><g clip-path="url(#p518a017d35)"><use x="454.217" y="72.663" fill="navy" stroke="navy" xlink:href="#C9_0_919e3f95db"/></g></g><g id="PathCollection_11"><defs><path id="Ca_0_919e3f95db" d="M0 2.23607 C0.593012 2.23607 1.16182 2.00046 1.58114 1.58114 C2.00046 1.16182 2.23607 0.593012 2.23607 0 C2.23607 -0.593012 2.00046 -1.16182 1.58114 -1.58114 C1.16182 -2.00046 0.593012 -2.23607 0 -2.23607 C-0.593012 -2.23607 -1.16182 -2.00046 -1.58114 -1.58114 C-2.00046 -1.16182 -2.23607 -0.593012 -2.23607 0 C-2.23607 0.593012 -2.00046 1.16182 -1.58114 1.58114 C-1.16182 2.00046 -0.593012 2.23607 0 2.23607 z"/></defs><g clip-path="url(#p518a017d35)"><use x="504.762" y="54.098" fill="olive" stroke="olive" xlink:href="#Ca_0_919e3f95db"/></g><g clip-path="url(#p518a017d35)"><use x="503.874" y="114.455" fill="olive" stroke="olive" xlink:href="#Ca_0_919e3f95db"/></g><g clip-path="url(#p518a017d35)"><use x="502.339" y="117.125" fill="olive" stroke="olive" xlink:href="#Ca_0_919e3f95db"/></g><g clip-path="url(#p518a017d35)"><use x="503.38" y="212.456" fill="olive" stroke="olive" xlink:href="#Ca_0_919e3f95db"/></g><g clip-path="url(#p518a017d35)"><use x="503.339" y="111.609" fill="olive" stroke="olive" xlink:href="#Ca_0_919e3f95db"/></g><g clip-path="url(#p518a017d35)"><use x="487.945" y="51.305" fill="olive" stroke="olive" xlink:href="#Ca_0_919e3f95db"/></g><g clip-path="url(#p518a017d35)"><use x="502.58" y="109.654" fill="olive" stroke="olive" xlink:href="#Ca_0_919e3f95db"/></g><g clip-path="url(#p518a017d35)"><use x="502.711" y="106.104" fill="olive" stroke="olive" xlink:href="#Ca_0_919e3f95db"/></g><g clip-path="url(#p518a017d35)"><use x="506.068" y="50.229" fill="olive" stroke="olive" xlink:href="#Ca_0_919e3f95db"/></g><g clip-path="url(#p518a017d35)"><use x="493.9" y="258.66" fill="olive" stroke="olive" xlink:href="#Ca_0_919e3f95db"/></g><g clip-path="url(#p518a017d35)"><use x="486.439" y="58.695" fill="olive" stroke="olive" xlink:href="#Ca_0_919e3f95db"/></g><g clip-path="url(#p518a017d35)"><use x="494.725" y="53.509" fill="olive" stroke="olive" xlink:href="#Ca_0_919e3f95db"/></g></g><g id="PathCollection_12"><defs><path id="Cb_0_919e3f95db" d="M0 2.23607 C0.593012 2.23607 1.16182 2.00046 1.58114 1.58114 C2.00046 1.16182 2.23607 0.593012 2.23607 0 C2.23607 -0.593012 2.00046 -1.16182 1.58114 -1.58114 C1.16182 -2.00046 0.593012 -2.23607 0 -2.23607 C-0.593012 -2.23607 -1.16182 -2.00046 -1.58114 -1.58114 C-2.00046 -1.16182 -2.23607 -0.593012 -2.23607 0 C-2.23607 0.593012 -2.00046 1.16182 -1.58114 1.58114 C-1.16182 2.00046 -0.593012 2.23607 0 2.23607 z"/></defs><g clip-path="url(#p518a017d35)"><use x="547.007" y="313.219" fill="purple" stroke="purple" xlink:href="#Cb_0_919e3f95db"/></g><g clip-path="url(#p518a017d35)"><use x="545.7" y="322.923" fill="purple" stroke="purple" xlink:href="#Cb_0_919e3f95db"/></g><g clip-path="url(#p518a017d35)"><use x="529.97" y="314.249" fill="purple" stroke="purple" xlink:href="#Cb_0_919e3f95db"/></g><g clip-path="url(#p518a017d35)"><use x="543.469" y="322.237" fill="purple" stroke="purple" xlink:href="#Cb_0_919e3f95db"/></g><g clip-path="url(#p518a017d35)"><use x="536.39" y="313.448" fill="purple" stroke="purple" xlink:href="#Cb_0_919e3f95db"/></g><g clip-path="url(#p518a017d35)"><use x="533.977" y="328.399" fill="purple" stroke="purple" xlink:href="#Cb_0_919e3f95db"/></g><g clip-path="url(#p518a017d35)"><use x="545.36" y="316.01" fill="purple" stroke="purple" xlink:href="#Cb_0_919e3f95db"/></g><g clip-path="url(#p518a017d35)"><use x="532.243" y="330.859" fill="purple" stroke="purple" xlink:href="#Cb_0_919e3f95db"/></g><g clip-path="url(#p518a017d35)"><use x="537.22" y="322.078" fill="purple" stroke="purple" xlink:href="#Cb_0_919e3f95db"/></g><g clip-path="url(#p518a017d35)"><use x="546.779" y="322.089" fill="purple" stroke="purple" xlink:href="#Cb_0_919e3f95db"/></g><g clip-path="url(#p518a017d35)"><use x="532.118" y="316.195" fill="purple" stroke="purple" xlink:href="#Cb_0_919e3f95db"/></g><g clip-path="url(#p518a017d35)"><use x="528.574" y="326.198" fill="purple" stroke="purple" xlink:href="#Cb_0_919e3f95db"/></g></g><g id="matplotlib.axis_1"><g id="xtick_1"><g id="line2d_1"><path fill="none" stroke="#000" stroke-dasharray="1 3" stroke-dashoffset="0" stroke-width=".5" d="M68.8215 345.771 L68.8215 28.9018" clip-path="url(#p518a017d35)"/></g><g id="line2d_2"><defs><path id="m93b0483c22" stroke="#000" stroke-width=".5" d="M0 0 L0 -4"/></defs><g><use x="68.822" y="345.771" stroke="#000" stroke-width=".5" xlink:href="#m93b0483c22"/></g></g><g id="line2d_3"><defs><path id="m741efc42ff" stroke="#000" stroke-width=".5" d="M0 0 L0 4"/></defs><g><use x="68.822" y="28.902" stroke="#000" stroke-width=".5" xlink:href="#m741efc42ff"/></g></g><g id="text_1"><defs><path id="DejaVuSans-2d" d="M4.89062 31.3906 L31.2031 31.3906 L31.2031 23.3906 L4.89062 23.3906 z"/><path id="DejaVuSans-6f" d="M30.6094 48.3906 Q23.3906 48.3906 19.1875 42.75 Q14.9844 37.1094 14.9844 27.2969 Q14.9844 17.4844 19.1562 11.8438 Q23.3438 6.20312 30.6094 6.20312 Q37.7969 6.20312 41.9844 11.8594 Q46.1875 17.5312 46.1875 27.2969 Q46.1875 37.0156 41.9844 42.7031 Q37.7969 48.3906 30.6094 48.3906 M30.6094 56 Q42.3281 56 49.0156 48.375 Q55.7188 40.7656 55.7188 27.2969 Q55.7188 13.875 49.0156 6.21875 Q42.3281 -1.42188 30.6094 -1.42188 Q18.8438 -1.42188 12.1719 6.21875 Q5.51562 13.875 5.51562 27.2969 Q5.51562 40.7656 12.1719 48.375 Q18.8438 56 30.6094 56"/><path id="DejaVuSans-6e" d="M54.8906 33.0156 L54.8906 0 L45.9062 0 L45.9062 32.7188 Q45.9062 40.4844 42.875 44.3281 Q39.8438 48.1875 33.7969 48.1875 Q26.5156 48.1875 22.3125 43.5469 Q18.1094 38.9219 18.1094 30.9062 L18.1094 0 L9.07812 0 L9.07812 54.6875 L18.1094 54.6875 L18.1094 46.1875 Q21.3438 51.125 25.7031 53.5625 Q30.0781 56 35.7969 56 Q45.2188 56 50.0469 50.1719 Q54.8906 44.3438 54.8906 33.0156"/><path id="DejaVuSans-6b" d="M9.07812 75.9844 L18.1094 75.9844 L18.1094 31.1094 L44.9219 54.6875 L56.3906 54.6875 L27.3906 29.1094 L57.625 0 L45.9062 0 L18.1094 26.7031 L18.1094 0 L9.07812 0 z"/><path id="DejaVuSans-5f" d="M50.9844 -16.6094 L50.9844 -23.5781 L-0.984375 -23.5781 L-0.984375 -16.6094 z"/><path id="DejaVuSans-31" d="M12.4062 8.29688 L28.5156 8.29688 L28.5156 63.9219 L10.9844 60.4062 L10.9844 69.3906 L28.4219 72.9062 L38.2812 72.9062 L38.2812 8.29688 L54.3906 8.29688 L54.3906 0 L12.4062 0 z"/><path id="DejaVuSans-32" d="M19.1875 8.29688 L53.6094 8.29688 L53.6094 0 L7.32812 0 L7.32812 8.29688 Q12.9375 14.1094 22.625 23.8906 Q32.3281 33.6875 34.8125 36.5312 Q39.5469 41.8438 41.4219 45.5312 Q43.3125 49.2188 43.3125 52.7812 Q43.3125 58.5938 39.2344 62.25 Q35.1562 65.9219 28.6094 65.9219 Q23.9688 65.9219 18.8125 64.3125 Q13.6719 62.7031 7.8125 59.4219 L7.8125 69.3906 Q13.7656 71.7812 18.9375 73 Q24.125 74.2188 28.4219 74.2188 Q39.75 74.2188 46.4844 68.5469 Q53.2188 62.8906 53.2188 53.4219 Q53.2188 48.9219 51.5312 44.8906 Q49.8594 40.875 45.4062 35.4062 Q44.1875 33.9844 37.6406 27.2188 Q31.1094 20.4531 19.1875 8.29688"/><path id="DejaVuSans-34" d="M37.7969 64.3125 L12.8906 25.3906 L37.7969 25.3906 zM35.2031 72.9062 L47.6094 72.9062 L47.6094 25.3906 L58.0156 25.3906 L58.0156 17.1875 L47.6094 17.1875 L47.6094 0 L37.7969 0 L37.7969 17.1875 L4.89062 17.1875 L4.89062 26.7031 z"/><path id="DejaVuSans-38" d="M31.7812 34.625 Q24.75 34.625 20.7188 30.8594 Q16.7031 27.0938 16.7031 20.5156 Q16.7031 13.9219 20.7188 10.1562 Q24.75 6.39062 31.7812 6.39062 Q38.8125 6.39062 42.8594 10.1719 Q46.9219 13.9688 46.9219 20.5156 Q46.9219 27.0938 42.8906 30.8594 Q38.875 34.625 31.7812 34.625 M21.9219 38.8125 Q15.5781 40.375 12.0312 44.7188 Q8.5 49.0781 8.5 55.3281 Q8.5 64.0625 14.7188 69.1406 Q20.9531 74.2188 31.7812 74.2188 Q42.6719 74.2188 48.875 69.1406 Q55.0781 64.0625 55.0781 55.3281 Q55.0781 49.0781 51.5312 44.7188 Q48 40.375 41.7031 38.8125 Q48.8281 37.1562 52.7969 32.3125 Q56.7812 27.4844 56.7812 20.5156 Q56.7812 9.90625 50.3125 4.23438 Q43.8438 -1.42188 31.7812 -1.42188 Q19.7344 -1.42188 13.25 4.23438 Q6.78125 9.90625 6.78125 20.5156 Q6.78125 27.4844 10.7812 32.3125 Q14.7969 37.1562 21.9219 38.8125 M18.3125 54.3906 Q18.3125 48.7344 21.8438 45.5625 Q25.3906 42.3906 31.7812 42.3906 Q38.1406 42.3906 41.7188 45.5625 Q45.3125 48.7344 45.3125 54.3906 Q45.3125 60.0625 41.7188 63.2344 Q38.1406 66.4062 31.7812 66.4062 Q25.3906 66.4062 21.8438 63.2344 Q18.3125 60.0625 18.3125 54.3906"/><path id="DejaVuSans-74" d="M18.3125 70.2188 L18.3125 54.6875 L36.8125 54.6875 L36.8125 47.7031 L18.3125 47.7031 L18.3125 18.0156 Q18.3125 11.3281 20.1406 9.42188 Q21.9688 7.51562 27.5938 7.51562 L36.8125 7.51562 L36.8125 0 L27.5938 0 Q17.1875 0 13.2344 3.875 Q9.28125 7.76562 9.28125 18.0156 L9.28125 47.7031 L2.6875 47.7031 L2.6875 54.6875 L9.28125 54.6875 L9.28125 70.2188 z"/><path id="DejaVuSans-77" d="M4.20312 54.6875 L13.1875 54.6875 L24.4219 12.0156 L35.5938 54.6875 L46.1875 54.6875 L57.4219 12.0156 L68.6094 54.6875 L77.5938 54.6875 L63.2812 0 L52.6875 0 L40.9219 44.8281 L29.1094 0 L18.5 0 z"/><path id="DejaVuSans-62" d="M48.6875 27.2969 Q48.6875 37.2031 44.6094 42.8438 Q40.5312 48.4844 33.4062 48.4844 Q26.2656 48.4844 22.1875 42.8438 Q18.1094 37.2031 18.1094 27.2969 Q18.1094 17.3906 22.1875 11.75 Q26.2656 6.10938 33.4062 6.10938 Q40.5312 6.10938 44.6094 11.75 Q48.6875 17.3906 48.6875 27.2969 M18.1094 46.3906 Q20.9531 51.2656 25.2656 53.625 Q29.5938 56 35.5938 56 Q45.5625 56 51.7812 48.0938 Q58.0156 40.1875 58.0156 27.2969 Q58.0156 14.4062 51.7812 6.48438 Q45.5625 -1.42188 35.5938 -1.42188 Q29.5938 -1.42188 25.2656 0.953125 Q20.9531 3.32812 18.1094 8.20312 L18.1094 0 L9.07812 0 L9.07812 75.9844 L18.1094 75.9844 z"/><path id="DejaVuSans-63" d="M48.7812 52.5938 L48.7812 44.1875 Q44.9688 46.2969 41.1406 47.3438 Q37.3125 48.3906 33.4062 48.3906 Q24.6562 48.3906 19.8125 42.8438 Q14.9844 37.3125 14.9844 27.2969 Q14.9844 17.2812 19.8125 11.7344 Q24.6562 6.20312 33.4062 6.20312 Q37.3125 6.20312 41.1406 7.25 Q44.9688 8.29688 48.7812 10.4062 L48.7812 2.09375 Q45.0156 0.34375 40.9844 -0.53125 Q36.9688 -1.42188 32.4219 -1.42188 Q20.0625 -1.42188 12.7812 6.34375 Q5.51562 14.1094 5.51562 27.2969 Q5.51562 40.6719 12.8594 48.3281 Q20.2188 56 33.0156 56 Q37.1562 56 41.1094 55.1406 Q45.0625 54.2969 48.7812 52.5938"/></defs><g transform="translate(39.5589147928 417.374841002)rotate(-45.0)scale(0.1 -0.1)"><use xlink:href="#DejaVuSans-77"/><use x="81.787" xlink:href="#DejaVuSans-34"/><use x="145.41" xlink:href="#DejaVuSans-34"/><use x="209.033" xlink:href="#DejaVuSans-2d"/><use x="245.117" xlink:href="#DejaVuSans-31"/><use x="308.74" xlink:href="#DejaVuSans-63"/><use x="363.721" xlink:href="#DejaVuSans-6f"/><use x="424.902" xlink:href="#DejaVuSans-6e"/><use x="488.281" xlink:href="#DejaVuSans-74"/><use x="527.49" xlink:href="#DejaVuSans-5f"/><use x="577.49" xlink:href="#DejaVuSans-31"/><use x="641.113" xlink:href="#DejaVuSans-32"/><use x="704.736" xlink:href="#DejaVuSans-38"/><use x="768.359" xlink:href="#DejaVuSans-6b"/><use x="826.27" xlink:href="#DejaVuSans-62"/></g></g></g><g id="xtick_2"><g id="line2d_4"><path fill="none" stroke="#000" stroke-dasharray="1 3" stroke-dashoffset="0" stroke-width=".5" d="M111.576 345.771 L111.576 28.9018" clip-path="url(#p518a017d35)"/></g><g id="line2d_5"><g><use x="111.576" y="345.771" stroke="#000" stroke-width=".5" xlink:href="#m93b0483c22"/></g></g><g id="line2d_6"><g><use x="111.576" y="28.902" stroke="#000" stroke-width=".5" xlink:href="#m741efc42ff"/></g></g><g id="text_2"><defs><path id="DejaVuSans-35" d="M10.7969 72.9062 L49.5156 72.9062 L49.5156 64.5938 L19.8281 64.5938 L19.8281 46.7344 Q21.9688 47.4688 24.1094 47.8281 Q26.2656 48.1875 28.4219 48.1875 Q40.625 48.1875 47.75 41.5 Q54.8906 34.8125 54.8906 23.3906 Q54.8906 11.625 47.5625 5.09375 Q40.2344 -1.42188 26.9062 -1.42188 Q22.3125 -1.42188 17.5469 -0.640625 Q12.7969 0.140625 7.71875 1.70312 L7.71875 11.625 Q12.1094 9.23438 16.7969 8.0625 Q21.4844 6.89062 26.7031 6.89062 Q35.1562 6.89062 40.0781 11.3281 Q45.0156 15.7656 45.0156 23.3906 Q45.0156 31 40.0781 35.4375 Q35.1562 39.8906 26.7031 39.8906 Q22.75 39.8906 18.8125 39.0156 Q14.8906 38.1406 10.7969 36.2812 z"/></defs><g transform="translate(82.3137092159 417.374841002)rotate(-45.0)scale(0.1 -0.1)"><use xlink:href="#DejaVuSans-77"/><use x="81.787" xlink:href="#DejaVuSans-34"/><use x="145.41" xlink:href="#DejaVuSans-35"/><use x="209.033" xlink:href="#DejaVuSans-2d"/><use x="245.117" xlink:href="#DejaVuSans-31"/><use x="308.74" xlink:href="#DejaVuSans-63"/><use x="363.721" xlink:href="#DejaVuSans-6f"/><use x="424.902" xlink:href="#DejaVuSans-6e"/><use x="488.281" xlink:href="#DejaVuSans-74"/><use x="527.49" xlink:href="#DejaVuSans-5f"/><use x="577.49" xlink:href="#DejaVuSans-35"/><use x="641.113" xlink:href="#DejaVuSans-31"/><use x="704.736" xlink:href="#DejaVuSans-32"/><use x="768.359" xlink:href="#DejaVuSans-6b"/><use x="826.27" xlink:href="#DejaVuSans-62"/></g></g></g><g id="xtick_3"><g id="line2d_7"><path fill="none" stroke="#000" stroke-dasharray="1 3" stroke-dashoffset="0" stroke-width=".5" d="M154.331 345.771 L154.331 28.9018" clip-path="url(#p518a017d35)"/></g><g id="line2d_8"><g><use x="154.331" y="345.771" stroke="#000" stroke-width=".5" xlink:href="#m93b0483c22"/></g></g><g id="line2d_9"><g><use x="154.331" y="28.902" stroke="#000" stroke-width=".5" xlink:href="#m741efc42ff"/></g></g><g id="text_3"><defs><path id="DejaVuSans-30" d="M31.7812 66.4062 Q24.1719 66.4062 20.3281 58.9062 Q16.5 51.4219 16.5 36.375 Q16.5 21.3906 20.3281 13.8906 Q24.1719 6.39062 31.7812 6.39062 Q39.4531 6.39062 43.2812 13.8906 Q47.125 21.3906 47.125 36.375 Q47.125 51.4219 43.2812 58.9062 Q39.4531 66.4062 31.7812 66.4062 M31.7812 74.2188 Q44.0469 74.2188 50.5156 64.5156 Q56.9844 54.8281 56.9844 36.375 Q56.9844 17.9688 50.5156 8.26562 Q44.0469 -1.42188 31.7812 -1.42188 Q19.5312 -1.42188 13.0625 8.26562 Q6.59375 17.9688 6.59375 36.375 Q6.59375 54.8281 13.0625 64.5156 Q19.5312 74.2188 31.7812 74.2188"/><path id="DejaVuSans-36" d="M33.0156 40.375 Q26.375 40.375 22.4844 35.8281 Q18.6094 31.2969 18.6094 23.3906 Q18.6094 15.5312 22.4844 10.9531 Q26.375 6.39062 33.0156 6.39062 Q39.6562 6.39062 43.5312 10.9531 Q47.4062 15.5312 47.4062 23.3906 Q47.4062 31.2969 43.5312 35.8281 Q39.6562 40.375 33.0156 40.375 M52.5938 71.2969 L52.5938 62.3125 Q48.875 64.0625 45.0938 64.9844 Q41.3125 65.9219 37.5938 65.9219 Q27.8281 65.9219 22.6719 59.3281 Q17.5312 52.7344 16.7969 39.4062 Q19.6719 43.6562 24.0156 45.9219 Q28.375 48.1875 33.5938 48.1875 Q44.5781 48.1875 50.9531 41.5156 Q57.3281 34.8594 57.3281 23.3906 Q57.3281 12.1562 50.6875 5.35938 Q44.0469 -1.42188 33.0156 -1.42188 Q20.3594 -1.42188 13.6719 8.26562 Q6.98438 17.9688 6.98438 36.375 Q6.98438 53.6562 15.1875 63.9375 Q23.3906 74.2188 37.2031 74.2188 Q40.9219 74.2188 44.7031 73.4844 Q48.4844 72.75 52.5938 71.2969"/></defs><g transform="translate(122.819020191 421.873807897)rotate(-45.0)scale(0.1 -0.1)"><use xlink:href="#DejaVuSans-77"/><use x="81.787" xlink:href="#DejaVuSans-34"/><use x="145.41" xlink:href="#DejaVuSans-36"/><use x="209.033" xlink:href="#DejaVuSans-2d"/><use x="245.117" xlink:href="#DejaVuSans-31"/><use x="308.74" xlink:href="#DejaVuSans-63"/><use x="363.721" xlink:href="#DejaVuSans-6f"/><use x="424.902" xlink:href="#DejaVuSans-6e"/><use x="488.281" xlink:href="#DejaVuSans-74"/><use x="527.49" xlink:href="#DejaVuSans-5f"/><use x="577.49" xlink:href="#DejaVuSans-31"/><use x="641.113" xlink:href="#DejaVuSans-30"/><use x="704.736" xlink:href="#DejaVuSans-32"/><use x="768.359" xlink:href="#DejaVuSans-34"/><use x="831.982" xlink:href="#DejaVuSans-6b"/><use x="889.893" xlink:href="#DejaVuSans-62"/></g></g></g><g id="xtick_4"><g id="line2d_10"><path fill="none" stroke="#000" stroke-dasharray="1 3" stroke-dashoffset="0" stroke-width=".5" d="M197.086 345.771 L197.086 28.9018" clip-path="url(#p518a017d35)"/></g><g id="line2d_11"><g><use x="197.086" y="345.771" stroke="#000" stroke-width=".5" xlink:href="#m93b0483c22"/></g></g><g id="line2d_12"><g><use x="197.086" y="28.902" stroke="#000" stroke-width=".5" xlink:href="#m741efc42ff"/></g></g><g id="text_4"><defs><path id="DejaVuSans-6d" d="M52 44.1875 Q55.375 50.25 60.0625 53.125 Q64.75 56 71.0938 56 Q79.6406 56 84.2812 50.0156 Q88.9219 44.0469 88.9219 33.0156 L88.9219 0 L79.8906 0 L79.8906 32.7188 Q79.8906 40.5781 77.0938 44.375 Q74.3125 48.1875 68.6094 48.1875 Q61.625 48.1875 57.5625 43.5469 Q53.5156 38.9219 53.5156 30.9062 L53.5156 0 L44.4844 0 L44.4844 32.7188 Q44.4844 40.625 41.7031 44.4062 Q38.9219 48.1875 33.1094 48.1875 Q26.2188 48.1875 22.1562 43.5312 Q18.1094 38.875 18.1094 30.9062 L18.1094 0 L9.07812 0 L9.07812 54.6875 L18.1094 54.6875 L18.1094 46.1875 Q21.1875 51.2188 25.4844 53.6094 Q29.7812 56 35.6875 56 Q41.6562 56 45.8281 52.9688 Q50 49.9531 52 44.1875"/><path id="DejaVuSans-37" d="M8.20312 72.9062 L55.0781 72.9062 L55.0781 68.7031 L28.6094 0 L18.3125 0 L43.2188 64.5938 L8.20312 64.5938 z"/></defs><g transform="translate(170.925729065 411.169978997)rotate(-45.0)scale(0.1 -0.1)"><use xlink:href="#DejaVuSans-77"/><use x="81.787" xlink:href="#DejaVuSans-34"/><use x="145.41" xlink:href="#DejaVuSans-37"/><use x="209.033" xlink:href="#DejaVuSans-2d"/><use x="245.117" xlink:href="#DejaVuSans-31"/><use x="308.74" xlink:href="#DejaVuSans-63"/><use x="363.721" xlink:href="#DejaVuSans-6f"/><use x="424.902" xlink:href="#DejaVuSans-6e"/><use x="488.281" xlink:href="#DejaVuSans-74"/><use x="527.49" xlink:href="#DejaVuSans-5f"/><use x="577.49" xlink:href="#DejaVuSans-35"/><use x="641.113" xlink:href="#DejaVuSans-6d"/><use x="738.525" xlink:href="#DejaVuSans-62"/></g></g></g><g id="xtick_5"><g id="line2d_13"><path fill="none" stroke="#000" stroke-dasharray="1 3" stroke-dashoffset="0" stroke-width=".5" d="M239.841 345.771 L239.841 28.9018" clip-path="url(#p518a017d35)"/></g><g id="line2d_14"><g><use x="239.841" y="345.771" stroke="#000" stroke-width=".5" xlink:href="#m93b0483c22"/></g></g><g id="line2d_15"><g><use x="239.841" y="28.902" stroke="#000" stroke-width=".5" xlink:href="#m741efc42ff"/></g></g><g id="text_5"><g transform="translate(211.43104004 415.668945892)rotate(-45.0)scale(0.1 -0.1)"><use xlink:href="#DejaVuSans-77"/><use x="81.787" xlink:href="#DejaVuSans-34"/><use x="145.41" xlink:href="#DejaVuSans-38"/><use x="209.033" xlink:href="#DejaVuSans-2d"/><use x="245.117" xlink:href="#DejaVuSans-31"/><use x="308.74" xlink:href="#DejaVuSans-63"/><use x="363.721" xlink:href="#DejaVuSans-6f"/><use x="424.902" xlink:href="#DejaVuSans-6e"/><use x="488.281" xlink:href="#DejaVuSans-74"/><use x="527.49" xlink:href="#DejaVuSans-5f"/><use x="577.49" xlink:href="#DejaVuSans-31"/><use x="641.113" xlink:href="#DejaVuSans-30"/><use x="704.736" xlink:href="#DejaVuSans-6d"/><use x="802.148" xlink:href="#DejaVuSans-62"/></g></g></g><g id="xtick_6"><g id="line2d_16"><path fill="none" stroke="#000" stroke-dasharray="1 3" stroke-dashoffset="0" stroke-width=".5" d="M282.596 345.771 L282.596 28.9018" clip-path="url(#p518a017d35)"/></g><g id="line2d_17"><g><use x="282.596" y="345.771" stroke="#000" stroke-width=".5" xlink:href="#m93b0483c22"/></g></g><g id="line2d_18"><g><use x="282.596" y="28.902" stroke="#000" stroke-width=".5" xlink:href="#m741efc42ff"/></g></g><g id="text_6"><defs><path id="DejaVuSans-39" d="M10.9844 1.51562 L10.9844 10.5 Q14.7031 8.73438 18.5 7.8125 Q22.3125 6.89062 25.9844 6.89062 Q35.75 6.89062 40.8906 13.4531 Q46.0469 20.0156 46.7812 33.4062 Q43.9531 29.2031 39.5938 26.9531 Q35.25 24.7031 29.9844 24.7031 Q19.0469 24.7031 12.6719 31.3125 Q6.29688 37.9375 6.29688 49.4219 Q6.29688 60.6406 12.9375 67.4219 Q19.5781 74.2188 30.6094 74.2188 Q43.2656 74.2188 49.9219 64.5156 Q56.5938 54.8281 56.5938 36.375 Q56.5938 19.1406 48.4062 8.85938 Q40.2344 -1.42188 26.4219 -1.42188 Q22.7031 -1.42188 18.8906 -0.6875 Q15.0938 0.046875 10.9844 1.51562 M30.6094 32.4219 Q37.25 32.4219 41.125 36.9531 Q45.0156 41.5 45.0156 49.4219 Q45.0156 57.2812 41.125 61.8438 Q37.25 66.4062 30.6094 66.4062 Q23.9688 66.4062 20.0938 61.8438 Q16.2188 57.2812 16.2188 49.4219 Q16.2188 41.5 20.0938 36.9531 Q23.9688 32.4219 30.6094 32.4219"/></defs><g transform="translate(255.582370356 412.875874107)rotate(-45.0)scale(0.1 -0.1)"><use xlink:href="#DejaVuSans-77"/><use x="81.787" xlink:href="#DejaVuSans-34"/><use x="145.41" xlink:href="#DejaVuSans-39"/><use x="209.033" xlink:href="#DejaVuSans-2d"/><use x="245.117" xlink:href="#DejaVuSans-32"/><use x="308.74" xlink:href="#DejaVuSans-30"/><use x="372.363" xlink:href="#DejaVuSans-63"/><use x="427.344" xlink:href="#DejaVuSans-6f"/><use x="488.525" xlink:href="#DejaVuSans-6e"/><use x="551.904" xlink:href="#DejaVuSans-74"/><use x="591.113" xlink:href="#DejaVuSans-5f"/><use x="641.113" xlink:href="#DejaVuSans-34"/><use x="704.736" xlink:href="#DejaVuSans-6b"/><use x="762.646" xlink:href="#DejaVuSans-62"/></g></g></g><g id="xtick_7"><g id="line2d_19"><path fill="none" stroke="#000" stroke-dasharray="1 3" stroke-dashoffset="0" stroke-width=".5" d="M325.35 345.771 L325.35 28.9018" clip-path="url(#p518a017d35)"/></g><g id="line2d_20"><g><use x="325.35" y="345.771" stroke="#000" stroke-width=".5" xlink:href="#m93b0483c22"/></g></g><g id="line2d_21"><g><use x="325.35" y="28.902" stroke="#000" stroke-width=".5" xlink:href="#m741efc42ff"/></g></g><g id="text_7"><g transform="translate(293.838197884 421.873807897)rotate(-45.0)scale(0.1 -0.1)"><use xlink:href="#DejaVuSans-77"/><use x="81.787" xlink:href="#DejaVuSans-35"/><use x="145.41" xlink:href="#DejaVuSans-30"/><use x="209.033" xlink:href="#DejaVuSans-2d"/><use x="245.117" xlink:href="#DejaVuSans-32"/><use x="308.74" xlink:href="#DejaVuSans-30"/><use x="372.363" xlink:href="#DejaVuSans-63"/><use x="427.344" xlink:href="#DejaVuSans-6f"/><use x="488.525" xlink:href="#DejaVuSans-6e"/><use x="551.904" xlink:href="#DejaVuSans-74"/><use x="591.113" xlink:href="#DejaVuSans-5f"/><use x="641.113" xlink:href="#DejaVuSans-31"/><use x="704.736" xlink:href="#DejaVuSans-32"/><use x="768.359" xlink:href="#DejaVuSans-38"/><use x="831.982" xlink:href="#DejaVuSans-6b"/><use x="889.893" xlink:href="#DejaVuSans-62"/></g></g></g><g id="xtick_8"><g id="line2d_22"><path fill="none" stroke="#000" stroke-dasharray="1 3" stroke-dashoffset="0" stroke-width=".5" d="M368.105 345.771 L368.105 28.9018" clip-path="url(#p518a017d35)"/></g><g id="line2d_23"><g><use x="368.105" y="345.771" stroke="#000" stroke-width=".5" xlink:href="#m93b0483c22"/></g></g><g id="line2d_24"><g><use x="368.105" y="28.902" stroke="#000" stroke-width=".5" xlink:href="#m741efc42ff"/></g></g><g id="text_8"><g transform="translate(336.592992307 421.873807897)rotate(-45.0)scale(0.1 -0.1)"><use xlink:href="#DejaVuSans-77"/><use x="81.787" xlink:href="#DejaVuSans-35"/><use x="145.41" xlink:href="#DejaVuSans-31"/><use x="209.033" xlink:href="#DejaVuSans-2d"/><use x="245.117" xlink:href="#DejaVuSans-32"/><use x="308.74" xlink:href="#DejaVuSans-30"/><use x="372.363" xlink:href="#DejaVuSans-63"/><use x="427.344" xlink:href="#DejaVuSans-6f"/><use x="488.525" xlink:href="#DejaVuSans-6e"/><use x="551.904" xlink:href="#DejaVuSans-74"/><use x="591.113" xlink:href="#DejaVuSans-5f"/><use x="641.113" xlink:href="#DejaVuSans-35"/><use x="704.736" xlink:href="#DejaVuSans-31"/><use x="768.359" xlink:href="#DejaVuSans-32"/><use x="831.982" xlink:href="#DejaVuSans-6b"/><use x="889.893" xlink:href="#DejaVuSans-62"/></g></g></g><g id="xtick_9"><g id="line2d_25"><path fill="none" stroke="#000" stroke-dasharray="1 3" stroke-dashoffset="0" stroke-width=".5" d="M410.86 345.771 L410.86 28.9018" clip-path="url(#p518a017d35)"/></g><g id="line2d_26"><g><use x="410.86" y="345.771" stroke="#000" stroke-width=".5" xlink:href="#m93b0483c22"/></g></g><g id="line2d_27"><g><use x="410.86" y="28.902" stroke="#000" stroke-width=".5" xlink:href="#m741efc42ff"/></g></g><g id="text_9"><g transform="translate(377.098303282 426.372774792)rotate(-45.0)scale(0.1 -0.1)"><use xlink:href="#DejaVuSans-77"/><use x="81.787" xlink:href="#DejaVuSans-35"/><use x="145.41" xlink:href="#DejaVuSans-32"/><use x="209.033" xlink:href="#DejaVuSans-2d"/><use x="245.117" xlink:href="#DejaVuSans-32"/><use x="308.74" xlink:href="#DejaVuSans-30"/><use x="372.363" xlink:href="#DejaVuSans-63"/><use x="427.344" xlink:href="#DejaVuSans-6f"/><use x="488.525" xlink:href="#DejaVuSans-6e"/><use x="551.904" xlink:href="#DejaVuSans-74"/><use x="591.113" xlink:href="#DejaVuSans-5f"/><use x="641.113" xlink:href="#DejaVuSans-31"/><use x="704.736" xlink:href="#DejaVuSans-30"/><use x="768.359" xlink:href="#DejaVuSans-32"/><use x="831.982" xlink:href="#DejaVuSans-34"/><use x="895.605" xlink:href="#DejaVuSans-6b"/><use x="953.516" xlink:href="#DejaVuSans-62"/></g></g></g><g id="xtick_10"><g id="line2d_28"><path fill="none" stroke="#000" stroke-dasharray="1 3" stroke-dashoffset="0" stroke-width=".5" d="M453.615 345.771 L453.615 28.9018" clip-path="url(#p518a017d35)"/></g><g id="line2d_29"><g><use x="453.615" y="345.771" stroke="#000" stroke-width=".5" xlink:href="#m93b0483c22"/></g></g><g id="line2d_30"><g><use x="453.615" y="28.902" stroke="#000" stroke-width=".5" xlink:href="#m741efc42ff"/></g></g><g id="text_10"><defs><path id="DejaVuSans-33" d="M40.5781 39.3125 Q47.6562 37.7969 51.625 33 Q55.6094 28.2188 55.6094 21.1875 Q55.6094 10.4062 48.1875 4.48438 Q40.7656 -1.42188 27.0938 -1.42188 Q22.5156 -1.42188 17.6562 -0.515625 Q12.7969 0.390625 7.625 2.20312 L7.625 11.7188 Q11.7188 9.32812 16.5938 8.10938 Q21.4844 6.89062 26.8125 6.89062 Q36.0781 6.89062 40.9375 10.5469 Q45.7969 14.2031 45.7969 21.1875 Q45.7969 27.6406 41.2812 31.2656 Q36.7656 34.9062 28.7188 34.9062 L20.2188 34.9062 L20.2188 43.0156 L29.1094 43.0156 Q36.375 43.0156 40.2344 45.9219 Q44.0938 48.8281 44.0938 54.2969 Q44.0938 59.9062 40.1094 62.9062 Q36.1406 65.9219 28.7188 65.9219 Q24.6562 65.9219 20.0156 65.0312 Q15.375 64.1562 9.8125 62.3125 L9.8125 71.0938 Q15.4375 72.6562 20.3438 73.4375 Q25.25 74.2188 29.5938 74.2188 Q40.8281 74.2188 47.3594 69.1094 Q53.9062 64.0156 53.9062 55.3281 Q53.9062 49.2656 50.4375 45.0938 Q46.9688 40.9219 40.5781 39.3125"/></defs><g transform="translate(425.205012155 415.668945892)rotate(-45.0)scale(0.1 -0.1)"><use xlink:href="#DejaVuSans-77"/><use x="81.787" xlink:href="#DejaVuSans-35"/><use x="145.41" xlink:href="#DejaVuSans-33"/><use x="209.033" xlink:href="#DejaVuSans-2d"/><use x="245.117" xlink:href="#DejaVuSans-32"/><use x="308.74" xlink:href="#DejaVuSans-30"/><use x="372.363" xlink:href="#DejaVuSans-63"/><use x="427.344" xlink:href="#DejaVuSans-6f"/><use x="488.525" xlink:href="#DejaVuSans-6e"/><use x="551.904" xlink:href="#DejaVuSans-74"/><use x="591.113" xlink:href="#DejaVuSans-5f"/><use x="641.113" xlink:href="#DejaVuSans-35"/><use x="704.736" xlink:href="#DejaVuSans-6d"/><use x="802.148" xlink:href="#DejaVuSans-62"/></g></g></g><g id="xtick_11"><g id="line2d_31"><path fill="none" stroke="#000" stroke-dasharray="1 3" stroke-dashoffset="0" stroke-width=".5" d="M496.369 345.771 L496.369 28.9018" clip-path="url(#p518a017d35)"/></g><g id="line2d_32"><g><use x="496.369" y="345.771" stroke="#000" stroke-width=".5" xlink:href="#m93b0483c22"/></g></g><g id="line2d_33"><g><use x="496.369" y="28.902" stroke="#000" stroke-width=".5" xlink:href="#m741efc42ff"/></g></g><g id="text_11"><g transform="translate(465.710323131 420.167912788)rotate(-45.0)scale(0.1 -0.1)"><use xlink:href="#DejaVuSans-77"/><use x="81.787" xlink:href="#DejaVuSans-35"/><use x="145.41" xlink:href="#DejaVuSans-34"/><use x="209.033" xlink:href="#DejaVuSans-2d"/><use x="245.117" xlink:href="#DejaVuSans-32"/><use x="308.74" xlink:href="#DejaVuSans-30"/><use x="372.363" xlink:href="#DejaVuSans-63"/><use x="427.344" xlink:href="#DejaVuSans-6f"/><use x="488.525" xlink:href="#DejaVuSans-6e"/><use x="551.904" xlink:href="#DejaVuSans-74"/><use x="591.113" xlink:href="#DejaVuSans-5f"/><use x="641.113" xlink:href="#DejaVuSans-31"/><use x="704.736" xlink:href="#DejaVuSans-30"/><use x="768.359" xlink:href="#DejaVuSans-6d"/><use x="865.771" xlink:href="#DejaVuSans-62"/></g></g></g><g id="xtick_12"><g id="line2d_34"><path fill="none" stroke="#000" stroke-dasharray="1 3" stroke-dashoffset="0" stroke-width=".5" d="M539.124 345.771 L539.124 28.9018" clip-path="url(#p518a017d35)"/></g><g id="line2d_35"><g><use x="539.124" y="345.771" stroke="#000" stroke-width=".5" xlink:href="#m93b0483c22"/></g></g><g id="line2d_36"><g><use x="539.124" y="28.902" stroke="#000" stroke-width=".5" xlink:href="#m741efc42ff"/></g></g><g id="text_12"><g transform="translate(514.360620342 408.376907211)rotate(-45.0)scale(0.1 -0.1)"><use xlink:href="#DejaVuSans-77"/><use x="81.787" xlink:href="#DejaVuSans-35"/><use x="145.41" xlink:href="#DejaVuSans-35"/><use x="209.033" xlink:href="#DejaVuSans-2d"/><use x="245.117" xlink:href="#DejaVuSans-31"/><use x="308.74" xlink:href="#DejaVuSans-63"/><use x="363.721" xlink:href="#DejaVuSans-6f"/><use x="424.902" xlink:href="#DejaVuSans-6e"/><use x="488.281" xlink:href="#DejaVuSans-74"/><use x="527.49" xlink:href="#DejaVuSans-5f"/><use x="577.49" xlink:href="#DejaVuSans-34"/><use x="641.113" xlink:href="#DejaVuSans-6b"/><use x="699.023" xlink:href="#DejaVuSans-62"/></g></g></g></g><g id="matplotlib.axis_2"><g id="ytick_1"><g id="line2d_37"><path fill="none" stroke="#000" stroke-dasharray="1 3" stroke-dashoffset="0" stroke-width=".5" d="M34.5794 331.586 L572.04 331.586" clip-path="url(#p518a017d35)"/></g><g id="line2d_38"><defs><path id="m728421d6d4" stroke="#000" stroke-width=".5" d="M0 0 L4 0"/></defs><g><use x="34.579" y="331.586" stroke="#000" stroke-width=".5" xlink:href="#m728421d6d4"/></g></g><g id="line2d_39"><defs><path id="mcb0005524f" stroke="#000" stroke-width=".5" d="M0 0 L-4 0"/></defs><g><use x="572.04" y="331.586" stroke="#000" stroke-width=".5" xlink:href="#mcb0005524f"/></g></g><g id="text_13"><defs><path id="DejaVuSans-2e" d="M10.6875 12.4062 L21 12.4062 L21 0 L10.6875 0 z"/></defs><g transform="translate(13.08375 334.897536063)scale(0.12 -0.12)"><use xlink:href="#DejaVuSans-30"/><use x="63.623" xlink:href="#DejaVuSans-2e"/><use x="95.41" xlink:href="#DejaVuSans-30"/></g></g></g><g id="ytick_2"><g id="line2d_40"><path fill="none" stroke="#000" stroke-dasharray="1 3" stroke-dashoffset="0" stroke-width=".5" d="M34.5794 282.758 L572.04 282.758" clip-path="url(#p518a017d35)"/></g><g id="line2d_41"><g><use x="34.579" y="282.758" stroke="#000" stroke-width=".5" xlink:href="#m728421d6d4"/></g></g><g id="line2d_42"><g><use x="572.04" y="282.758" stroke="#000" stroke-width=".5" xlink:href="#mcb0005524f"/></g></g><g id="text_14"><g transform="translate(13.48875 286.069000425)scale(0.12 -0.12)"><use xlink:href="#DejaVuSans-30"/><use x="63.623" xlink:href="#DejaVuSans-2e"/><use x="95.41" xlink:href="#DejaVuSans-32"/></g></g></g><g id="ytick_3"><g id="line2d_43"><path fill="none" stroke="#000" stroke-dasharray="1 3" stroke-dashoffset="0" stroke-width=".5" d="M34.5794 233.929 L572.04 233.929" clip-path="url(#p518a017d35)"/></g><g id="line2d_44"><g><use x="34.579" y="233.929" stroke="#000" stroke-width=".5" xlink:href="#m728421d6d4"/></g></g><g id="line2d_45"><g><use x="572.04" y="233.929" stroke="#000" stroke-width=".5" xlink:href="#mcb0005524f"/></g></g><g id="text_15"><g transform="translate(12.96 237.240464788)scale(0.12 -0.12)"><use xlink:href="#DejaVuSans-30"/><use x="63.623" xlink:href="#DejaVuSans-2e"/><use x="95.41" xlink:href="#DejaVuSans-34"/></g></g></g><g id="ytick_4"><g id="line2d_46"><path fill="none" stroke="#000" stroke-dasharray="1 3" stroke-dashoffset="0" stroke-width=".5" d="M34.5794 185.101 L572.04 185.101" clip-path="url(#p518a017d35)"/></g><g id="line2d_47"><g><use x="34.579" y="185.101" stroke="#000" stroke-width=".5" xlink:href="#m728421d6d4"/></g></g><g id="line2d_48"><g><use x="572.04" y="185.101" stroke="#000" stroke-width=".5" xlink:href="#mcb0005524f"/></g></g><g id="text_16"><g transform="translate(13.0425 188.41192915)scale(0.12 -0.12)"><use xlink:href="#DejaVuSans-30"/><use x="63.623" xlink:href="#DejaVuSans-2e"/><use x="95.41" xlink:href="#DejaVuSans-36"/></g></g></g><g id="ytick_5"><g id="line2d_49"><path fill="none" stroke="#000" stroke-dasharray="1 3" stroke-dashoffset="0" stroke-width=".5" d="M34.5794 136.272 L572.04 136.272" clip-path="url(#p518a017d35)"/></g><g id="line2d_50"><g><use x="34.579" y="136.272" stroke="#000" stroke-width=".5" xlink:href="#m728421d6d4"/></g></g><g id="line2d_51"><g><use x="572.04" y="136.272" stroke="#000" stroke-width=".5" xlink:href="#mcb0005524f"/></g></g><g id="text_17"><g transform="translate(13.108125 139.583393513)scale(0.12 -0.12)"><use xlink:href="#DejaVuSans-30"/><use x="63.623" xlink:href="#DejaVuSans-2e"/><use x="95.41" xlink:href="#DejaVuSans-38"/></g></g></g><g id="ytick_6"><g id="line2d_52"><path fill="none" stroke="#000" stroke-dasharray="1 3" stroke-dashoffset="0" stroke-width=".5" d="M34.5794 87.4436 L572.04 87.4436" clip-path="url(#p518a017d35)"/></g><g id="line2d_53"><g><use x="34.579" y="87.444" stroke="#000" stroke-width=".5" xlink:href="#m728421d6d4"/></g></g><g id="line2d_54"><g><use x="572.04" y="87.444" stroke="#000" stroke-width=".5" xlink:href="#mcb0005524f"/></g></g><g id="text_18"><g transform="translate(13.610625 90.7548578753)scale(0.12 -0.12)"><use xlink:href="#DejaVuSans-31"/><use x="63.623" xlink:href="#DejaVuSans-2e"/><use x="95.41" xlink:href="#DejaVuSans-30"/></g></g></g><g id="ytick_7"><g id="line2d_55"><path fill="none" stroke="#000" stroke-dasharray="1 3" stroke-dashoffset="0" stroke-width=".5" d="M34.5794 38.6151 L572.04 38.6151" clip-path="url(#p518a017d35)"/></g><g id="line2d_56"><g><use x="34.579" y="38.615" stroke="#000" stroke-width=".5" xlink:href="#m728421d6d4"/></g></g><g id="line2d_57"><g><use x="572.04" y="38.615" stroke="#000" stroke-width=".5" xlink:href="#mcb0005524f"/></g></g><g id="text_19"><g transform="translate(14.015625 41.9263222379)scale(0.12 -0.12)"><use xlink:href="#DejaVuSans-31"/><use x="63.623" xlink:href="#DejaVuSans-2e"/><use x="95.41" xlink:href="#DejaVuSans-32"/></g></g></g><g id="text_20"><defs><path id="DejaVuSans-65" d="M56.2031 29.5938 L56.2031 25.2031 L14.8906 25.2031 Q15.4844 15.9219 20.4844 11.0625 Q25.4844 6.20312 34.4219 6.20312 Q39.5938 6.20312 44.4531 7.46875 Q49.3125 8.73438 54.1094 11.2812 L54.1094 2.78125 Q49.2656 0.734375 44.1875 -0.34375 Q39.1094 -1.42188 33.8906 -1.42188 Q20.7969 -1.42188 13.1562 6.1875 Q5.51562 13.8125 5.51562 26.8125 Q5.51562 40.2344 12.7656 48.1094 Q20.0156 56 32.3281 56 Q43.3594 56 49.7812 48.8906 Q56.2031 41.7969 56.2031 29.5938 M47.2188 32.2344 Q47.125 39.5938 43.0938 43.9844 Q39.0625 48.3906 32.4219 48.3906 Q24.9062 48.3906 20.3906 44.1406 Q15.875 39.8906 15.1875 32.1719 z"/></defs><g transform="translate(34.579375 25.90175)scale(0.12 -0.12)"><use xlink:href="#DejaVuSans-31"/><use x="63.623" xlink:href="#DejaVuSans-65"/><use x="125.146" xlink:href="#DejaVuSans-38"/></g></g></g><g id="patch_3"><path fill="none" stroke="#000" d="M34.5794 28.9018 L572.04 28.9018"/></g><g id="patch_4"><path fill="none" stroke="#000" d="M572.04 345.771 L572.04 28.9018"/></g><g id="patch_5"><path fill="none" stroke="#000" d="M34.5794 345.771 L572.04 345.771"/></g><g id="patch_6"><path fill="none" stroke="#000" d="M34.5794 345.771 L34.5794 28.9018"/></g><g id="text_21"><defs><path id="DejaVuSans-56" d="M28.6094 0 L0.78125 72.9062 L11.0781 72.9062 L34.1875 11.5312 L57.3281 72.9062 L67.5781 72.9062 L39.7969 0 z"/><path id="DejaVuSans-20"/><path id="DejaVuSans-47" d="M59.5156 10.4062 L59.5156 29.9844 L43.4062 29.9844 L43.4062 38.0938 L69.2812 38.0938 L69.2812 6.78125 Q63.5781 2.73438 56.6875 0.65625 Q49.8125 -1.42188 42 -1.42188 Q24.9062 -1.42188 15.25 8.5625 Q5.60938 18.5625 5.60938 36.375 Q5.60938 54.25 15.25 64.2344 Q24.9062 74.2188 42 74.2188 Q49.125 74.2188 55.5469 72.4531 Q61.9688 70.7031 67.3906 67.2812 L67.3906 56.7812 Q61.9219 61.4219 55.7656 63.7656 Q49.6094 66.1094 42.8281 66.1094 Q29.4375 66.1094 22.7188 58.6406 Q16.0156 51.1719 16.0156 36.375 Q16.0156 21.625 22.7188 14.1562 Q29.4375 6.6875 42.8281 6.6875 Q48.0469 6.6875 52.1406 7.59375 Q56.25 8.5 59.5156 10.4062"/><path id="DejaVuSans-41" d="M34.1875 63.1875 L20.7969 26.9062 L47.6094 26.9062 zM28.6094 72.9062 L39.7969 72.9062 L67.5781 0 L57.3281 0 L50.6875 18.7031 L17.8281 18.7031 L11.1875 0 L0.78125 0 z"/><path id="DejaVuSans-68" d="M54.8906 33.0156 L54.8906 0 L45.9062 0 L45.9062 32.7188 Q45.9062 40.4844 42.875 44.3281 Q39.8438 48.1875 33.7969 48.1875 Q26.5156 48.1875 22.3125 43.5469 Q18.1094 38.9219 18.1094 30.9062 L18.1094 0 L9.07812 0 L9.07812 75.9844 L18.1094 75.9844 L18.1094 46.1875 Q21.3438 51.125 25.7031 53.5625 Q30.0781 56 35.7969 56 Q45.2188 56 50.0469 50.1719 Q54.8906 44.3438 54.8906 33.0156"/><path id="DejaVuSans-43" d="M64.4062 67.2812 L64.4062 56.8906 Q59.4219 61.5312 53.7812 63.8125 Q48.1406 66.1094 41.7969 66.1094 Q29.2969 66.1094 22.6562 58.4688 Q16.0156 50.8281 16.0156 36.375 Q16.0156 21.9688 22.6562 14.3281 Q29.2969 6.6875 41.7969 6.6875 Q48.1406 6.6875 53.7812 8.98438 Q59.4219 11.2812 64.4062 15.9219 L64.4062 5.60938 Q59.2344 2.09375 53.4375 0.328125 Q47.6562 -1.42188 41.2188 -1.42188 Q24.6562 -1.42188 15.125 8.70312 Q5.60938 18.8438 5.60938 36.375 Q5.60938 53.9531 15.125 64.0781 Q24.6562 74.2188 41.2188 74.2188 Q47.75 74.2188 53.5312 72.4844 Q59.3281 70.75 64.4062 67.2812"/><path id="DejaVuSans-52" d="M44.3906 34.1875 Q47.5625 33.1094 50.5625 29.5938 Q53.5625 26.0781 56.5938 19.9219 L66.6094 0 L56 0 L46.6875 18.7031 Q43.0625 26.0312 39.6719 28.4219 Q36.2812 30.8125 30.4219 30.8125 L19.6719 30.8125 L19.6719 0 L9.8125 0 L9.8125 72.9062 L32.0781 72.9062 Q44.5781 72.9062 50.7344 67.6719 Q56.8906 62.4531 56.8906 51.9062 Q56.8906 45.0156 53.6875 40.4688 Q50.4844 35.9375 44.3906 34.1875 M19.6719 64.7969 L19.6719 38.9219 L32.0781 38.9219 Q39.2031 38.9219 42.8438 42.2188 Q46.4844 45.5156 46.4844 51.9062 Q46.4844 58.2969 42.8438 61.5469 Q39.2031 64.7969 32.0781 64.7969 z"/><path id="DejaVuSans-64" d="M45.4062 46.3906 L45.4062 75.9844 L54.3906 75.9844 L54.3906 0 L45.4062 0 L45.4062 8.20312 Q42.5781 3.32812 38.25 0.953125 Q33.9375 -1.42188 27.875 -1.42188 Q17.9688 -1.42188 11.7344 6.48438 Q5.51562 14.4062 5.51562 27.2969 Q5.51562 40.1875 11.7344 48.0938 Q17.9688 56 27.875 56 Q33.9375 56 38.25 53.625 Q42.5781 51.2656 45.4062 46.3906 M14.7969 27.2969 Q14.7969 17.3906 18.875 11.75 Q22.9531 6.10938 30.0781 6.10938 Q37.2031 6.10938 41.2969 11.75 Q45.4062 17.3906 45.4062 27.2969 Q45.4062 37.2031 41.2969 42.8438 Q37.2031 48.4844 30.0781 48.4844 Q22.9531 48.4844 18.875 42.8438 Q14.7969 37.2031 14.7969 27.2969"/><path id="DejaVuSans-61" d="M34.2812 27.4844 Q23.3906 27.4844 19.1875 25 Q14.9844 22.5156 14.9844 16.5 Q14.9844 11.7188 18.1406 8.90625 Q21.2969 6.10938 26.7031 6.10938 Q34.1875 6.10938 38.7031 11.4062 Q43.2188 16.7031 43.2188 25.4844 L43.2188 27.4844 zM52.2031 31.2031 L52.2031 0 L43.2188 0 L43.2188 8.29688 Q40.1406 3.32812 35.5469 0.953125 Q30.9531 -1.42188 24.3125 -1.42188 Q15.9219 -1.42188 10.9531 3.29688 Q6 8.01562 6 15.9219 Q6 25.1406 12.1719 29.8281 Q18.3594 34.5156 30.6094 34.5156 L43.2188 34.5156 L43.2188 35.4062 Q43.2188 41.6094 39.1406 45 Q35.0625 48.3906 27.6875 48.3906 Q23 48.3906 18.5469 47.2656 Q14.1094 46.1406 10.0156 43.8906 L10.0156 52.2031 Q14.9375 54.1094 19.5781 55.0469 Q24.2188 56 28.6094 56 Q40.4844 56 46.3438 49.8438 Q52.2031 43.7031 52.2031 31.2031"/><path id="DejaVuSans-70" d="M18.1094 8.20312 L18.1094 -20.7969 L9.07812 -20.7969 L9.07812 54.6875 L18.1094 54.6875 L18.1094 46.3906 Q20.9531 51.2656 25.2656 53.625 Q29.5938 56 35.5938 56 Q45.5625 56 51.7812 48.0938 Q58.0156 40.1875 58.0156 27.2969 Q58.0156 14.4062 51.7812 6.48438 Q45.5625 -1.42188 35.5938 -1.42188 Q29.5938 -1.42188 25.2656 0.953125 Q20.9531 3.32812 18.1094 8.20312 M48.6875 27.2969 Q48.6875 37.2031 44.6094 42.8438 Q40.5312 48.4844 33.4062 48.4844 Q26.2656 48.4844 22.1875 42.8438 Q18.1094 37.2031 18.1094 27.2969 Q18.1094 17.3906 22.1875 11.75 Q26.2656 6.10938 33.4062 6.10938 Q40.5312 6.10938 44.6094 11.75 Q48.6875 17.3906 48.6875 27.2969"/><path id="DejaVuSans-73" d="M44.2812 53.0781 L44.2812 44.5781 Q40.4844 46.5312 36.375 47.5 Q32.2812 48.4844 27.875 48.4844 Q21.1875 48.4844 17.8438 46.4375 Q14.5 44.3906 14.5 40.2812 Q14.5 37.1562 16.8906 35.375 Q19.2812 33.5938 26.5156 31.9844 L29.5938 31.2969 Q39.1562 29.25 43.1875 25.5156 Q47.2188 21.7812 47.2188 15.0938 Q47.2188 7.46875 41.1875 3.01562 Q35.1562 -1.42188 24.6094 -1.42188 Q20.2188 -1.42188 15.4531 -0.5625 Q10.6875 0.296875 5.42188 2 L5.42188 11.2812 Q10.4062 8.6875 15.2344 7.39062 Q20.0625 6.10938 24.8125 6.10938 Q31.1562 6.10938 34.5625 8.28125 Q37.9844 10.4531 37.9844 14.4062 Q37.9844 18.0625 35.5156 20.0156 Q33.0625 21.9688 24.7031 23.7812 L21.5781 24.5156 Q13.2344 26.2656 9.51562 29.9062 Q5.8125 33.5469 5.8125 39.8906 Q5.8125 47.6094 11.2812 51.7969 Q16.75 56 26.8125 56 Q31.7812 56 36.1719 55.2656 Q40.5781 54.5469 44.2812 53.0781"/><path id="DejaVuSans-54" d="M-0.296875 72.9062 L61.375 72.9062 L61.375 64.5938 L35.5 64.5938 L35.5 0 L25.5938 0 L25.5938 64.5938 L-0.296875 64.5938 z"/></defs><g transform="translate(224.9736875 23.90175)scale(0.144 -0.144)"><use xlink:href="#DejaVuSans-52"/><use x="64.982" xlink:href="#DejaVuSans-65"/><use x="126.506" xlink:href="#DejaVuSans-61"/><use x="187.785" xlink:href="#DejaVuSans-64"/><use x="251.262" xlink:href="#DejaVuSans-20"/><use x="283.049" xlink:href="#DejaVuSans-54"/><use x="344.133" xlink:href="#DejaVuSans-70"/><use x="407.609" xlink:href="#DejaVuSans-74"/><use x="446.818" xlink:href="#DejaVuSans-20"/><use x="478.605" xlink:href="#DejaVuSans-41"/><use x="540.639" xlink:href="#DejaVuSans-56"/><use x="609.047" xlink:href="#DejaVuSans-47"/><use x="686.537" xlink:href="#DejaVuSans-73"/><use x="738.637" xlink:href="#DejaVuSans-20"/><use x="770.424" xlink:href="#DejaVuSans-2d"/><use x="806.508" xlink:href="#DejaVuSans-20"/><use x="838.295" xlink:href="#DejaVuSans-43"/><use x="908.119" xlink:href="#DejaVuSans-65"/><use x="969.643" xlink:href="#DejaVuSans-70"/><use x="1033.119" xlink:href="#DejaVuSans-68"/></g></g></g></g><defs><clipPath id="p518a017d35"><rect width="537.461" height="316.869" x="34.579" y="28.902"/></clipPath></defs></svg>